<?xml version="1.0" standalone="no"?>
<!DOCTYPE svg PUBLIC "-//W3C//DTD SVG 20010904//EN"
 "http://www.w3.org/TR/2001/REC-SVG-20010904/DTD/svg10.dtd">
<svg version="1.0" xmlns="http://www.w3.org/2000/svg"
 width="749.000000pt" height="609.000000pt" viewBox="0 0 749.000000 609.000000"
 preserveAspectRatio="xMidYMid meet">

<g transform="translate(0.000000,609.000000) scale(0.100000,-0.100000)"
fill="#000000" stroke="none">
<path d="M3850 5606 c0 -13 6 -29 14 -35 8 -7 17 -28 20 -49 4 -20 9 -46 12
-57 11 -41 -23 17 -36 63 -13 40 -32 54 -45 31 -4 -5 0 -18 7 -27 8 -9 26 -38
41 -64 22 -41 23 -46 7 -38 -30 16 -50 12 -50 -11 0 -18 4 -20 29 -14 24 5 36
0 62 -23 l33 -30 -36 -15 c-51 -22 -72 -57 -66 -112 3 -25 4 -45 2 -45 -1 0
-14 4 -28 10 -24 9 -26 14 -26 67 0 71 -21 109 -84 152 -44 31 -46 31 -46 11
0 -36 31 -133 52 -162 36 -51 -4 -31 -67 35 -50 51 -63 72 -78 124 -13 49 -25
68 -59 97 -49 42 -73 47 -63 14 20 -67 56 -128 94 -158 22 -18 40 -35 38 -37
-2 -1 -21 6 -42 17 -29 15 -59 20 -117 20 -43 0 -78 -4 -78 -8 0 -16 112 -91
143 -97 18 -4 52 -2 76 4 49 11 66 6 131 -38 l45 -31 -46 0 c-34 0 -57 -8 -92
-31 -60 -40 -64 -47 -32 -59 65 -25 152 -1 189 52 12 17 19 18 51 9 45 -12 75
-37 75 -63 0 -35 31 -79 65 -94 46 -19 84 -18 128 5 20 10 37 15 37 10 0 -5
11 -9 25 -9 32 0 72 39 80 77 4 15 13 40 21 55 17 32 18 107 1 129 -15 19 -50
39 -70 39 -12 0 -11 -7 4 -37 21 -41 25 -78 9 -88 -6 -4 -10 10 -10 33 0 49
-23 78 -75 97 -22 8 -32 14 -23 15 9 0 28 -4 42 -10 32 -12 33 0 2 29 -36 33
-90 45 -126 27 -28 -13 -31 -13 -40 4 -18 35 -12 107 11 129 13 12 19 26 15
36 -11 29 -39 12 -50 -30 -7 -22 -14 -35 -18 -30 -9 16 -21 88 -19 113 2 16
-3 22 -18 22 -15 0 -21 -6 -21 -24z m219 -332 c52 -43 35 -115 -24 -100 -43
11 -56 66 -19 80 9 3 25 1 37 -5 22 -12 22 -12 3 10 -23 25 -63 27 -94 5 -35
-24 -25 -89 19 -126 38 -32 25 -39 -15 -7 -14 11 -30 35 -34 52 -5 18 -14 31
-21 30 -17 -4 -13 3 22 40 51 55 81 59 126 21z m75 -141 c-10 -40 -19 -49 -70
-63 -34 -10 -48 -10 -57 -1 -8 8 -4 11 19 11 37 0 90 32 99 59 9 31 16 25 9
-6z"/>
<path d="M4020 5220 c0 -21 34 -45 50 -35 6 3 5 15 -2 30 -14 30 -48 34 -48 5z"/>
<path d="M4299 5550 c-62 -32 -96 -75 -108 -132 -16 -71 -1 -81 38 -24 17 25
36 48 42 52 6 4 -5 -17 -25 -47 -19 -29 -34 -55 -31 -57 2 -3 24 7 49 22 34
20 48 36 60 68 15 44 36 117 36 131 0 12 -23 7 -61 -13z"/>
<path d="M3720 5544 c0 -9 5 -14 12 -12 18 6 21 28 4 28 -9 0 -16 -7 -16 -16z"/>
<path d="M3034 5470 c-48 -24 -77 -61 -95 -118 -34 -114 97 -232 258 -234 37
0 88 5 113 12 55 15 152 63 169 84 19 23 9 20 -57 -14 -155 -82 -334 -53 -393
62 -30 58 -22 120 20 161 39 40 94 43 123 7 25 -30 21 -75 -7 -75 -29 0 -45
-13 -38 -31 4 -10 16 -14 36 -12 70 7 75 110 8 155 -42 28 -84 29 -137 3z"/>
<path d="M4360 5378 c-33 -23 -96 -115 -86 -126 12 -11 167 -13 198 -3 45 16
148 114 148 141 0 6 -47 10 -114 10 -101 0 -117 -2 -146 -22z m6 -78 c-21 -11
-44 -25 -52 -31 -8 -7 -17 -9 -20 -6 -7 7 77 57 96 57 8 -1 -2 -9 -24 -20z"/>
<path d="M2677 5358 c-2 -7 8 -24 22 -38 l26 -25 -45 -3 c-24 -2 -51 -8 -58
-14 -20 -17 3 -33 46 -30 27 2 48 -4 75 -22 66 -45 91 -29 100 64 3 25 6 51 8
59 5 19 -31 27 -42 9 -5 -7 -9 -29 -9 -48 l-1 -35 -40 48 c-40 46 -73 60 -82
35z"/>
<path d="M4895 5290 c-147 -27 -340 -102 -432 -169 -38 -27 -57 -61 -35 -61 4
0 59 27 123 59 64 32 163 73 220 92 98 32 112 34 245 34 137 0 141 -1 199 -31
77 -40 109 -93 103 -171 -8 -99 -91 -177 -239 -227 -221 -74 -414 -61 -1024
69 -443 94 -490 100 -760 100 -248 -1 -329 -12 -518 -71 -207 -66 -407 -200
-520 -349 -152 -202 -202 -415 -136 -589 26 -71 112 -166 176 -196 267 -126
633 105 739 466 29 99 23 274 -9 274 -10 0 -14 -21 -14 -77 -3 -219 -160 -478
-357 -588 -168 -94 -325 -81 -430 36 -60 67 -81 131 -80 244 2 285 224 532
575 639 229 70 531 74 873 12 109 -20 250 -48 313 -61 304 -66 579 -100 753
-92 166 7 288 35 415 98 128 62 200 120 245 195 32 53 35 65 35 135 0 71 -2
80 -31 116 -40 49 -85 79 -148 99 -62 19 -213 26 -281 14z"/>
<path d="M2385 5195 c-22 -9 -56 -28 -75 -44 -22 -18 -53 -30 -84 -34 -138
-19 -256 -120 -256 -220 0 -46 -29 -67 -90 -67 -54 0 -86 -19 -76 -45 10 -26
86 -15 131 19 l35 27 30 -33 c36 -40 37 -51 8 -72 -16 -12 -19 -18 -10 -22 18
-8 15 -69 -6 -94 -12 -15 -33 -24 -65 -27 -52 -6 -78 -26 -59 -45 9 -9 21 -6
51 10 21 12 41 22 45 22 18 0 0 -35 -44 -83 -54 -59 -63 -87 -29 -87 19 0 20
-4 15 -37 -12 -67 -12 -106 2 -110 8 -3 12 6 12 28 0 30 1 31 18 16 23 -21 28
-21 35 -3 3 8 -7 28 -24 45 -16 17 -29 40 -29 51 0 25 31 99 35 85 2 -5 6 -22
9 -37 6 -28 29 -37 41 -18 4 6 -2 25 -13 43 -19 32 -19 32 3 80 l23 48 6 -45
c8 -50 30 -76 49 -57 9 9 8 19 -2 44 -32 78 -36 97 -33 136 5 55 18 52 28 -6
6 -33 15 -49 27 -51 24 -5 23 52 -3 101 -24 44 -24 47 -6 47 23 0 29 20 12 38
-10 11 -13 27 -9 42 8 33 86 143 120 170 l28 22 6 -41 c10 -76 83 -127 159
-110 52 12 92 72 76 115 -9 24 -61 15 -61 -11 0 -13 6 -20 18 -19 39 3 6 -46
-40 -60 -13 -4 -36 -1 -56 9 -55 26 -71 82 -43 150 l15 35 93 0 c51 -1 152 -5
223 -9 72 -5 153 -5 180 -1 l50 7 -65 2 c-36 1 -119 8 -185 16 -66 8 -154 15
-195 15 l-75 2 50 24 c46 23 58 25 155 20 83 -3 129 -12 222 -41 98 -30 129
-35 190 -33 85 4 74 11 -37 26 -44 6 -127 25 -185 42 -129 38 -281 49 -345 25z
m-125 -103 c0 -4 -27 -32 -61 -61 -33 -29 -76 -78 -96 -107 -29 -44 -41 -54
-64 -54 -26 0 -29 3 -29 33 0 75 96 167 193 186 58 12 57 12 57 3z"/>
<path d="M5463 4973 c-23 -9 -14 -38 17 -55 36 -20 46 -57 31 -108 -17 -56
-55 -97 -124 -132 l-61 -30 27 32 c34 39 38 100 8 100 -28 0 -36 -18 -16 -40
15 -17 14 -20 -16 -55 -41 -47 -80 -66 -209 -104 -320 -93 -449 -162 -627
-331 -41 -40 -76 -70 -78 -68 -2 1 -8 29 -14 62 -6 32 -17 71 -25 87 -8 16
-10 29 -5 29 5 0 9 8 9 18 0 29 36 78 74 101 38 24 44 36 23 44 -40 15 -117
-59 -117 -113 0 -23 -1 -23 -39 14 -29 28 -50 40 -75 41 -19 1 -47 12 -62 24
-54 43 -127 39 -175 -8 -34 -35 -44 -69 -33 -116 13 -52 26 -48 39 13 10 44
10 52 -1 48 -18 -7 -18 4 1 31 29 42 108 49 148 14 45 -38 46 -96 3 -85 -24 6
-52 -18 -41 -36 19 -31 90 3 100 50 4 20 13 30 25 30 29 0 120 -112 120 -149
0 -5 -14 -7 -33 -4 -44 7 -83 -23 -72 -56 9 -31 59 -26 63 7 4 27 14 28 35 4
26 -29 21 -91 -15 -167 -24 -53 -29 -73 -22 -93 5 -14 14 -27 21 -29 18 -6 54
73 60 135 6 50 11 60 62 112 80 81 180 126 194 88 4 -10 7 -10 17 -1 11 10 11
15 0 28 -17 20 -38 19 -85 -6 l-40 -20 30 26 c87 76 226 149 314 165 54 10 66
9 80 -4 22 -20 31 -20 31 -1 0 8 -12 21 -26 28 -25 13 -22 15 87 47 285 82
387 133 453 228 37 54 48 98 36 144 -15 52 -55 78 -97 61z m-1102 -974 c-14
-32 -20 -38 -20 -22 -1 27 33 102 37 81 1 -8 -6 -34 -17 -59z"/>
<path d="M2134 4846 c-10 -26 1 -51 21 -51 23 0 32 30 15 50 -16 19 -29 19
-36 1z"/>
<path d="M2204 4746 c-8 -21 3 -36 27 -36 15 0 20 6 17 22 -4 27 -35 37 -44
14z"/>
<path d="M1853 4681 c-17 -11 -50 -47 -72 -79 -65 -96 -131 -134 -131 -77 0
14 -4 25 -9 25 -46 0 -58 -59 -17 -85 47 -31 102 11 191 143 31 47 77 77 106
69 23 -6 25 8 3 17 -25 10 -37 7 -71 -13z"/>
<path d="M3871 4639 c-199 -99 -448 -410 -643 -804 -36 -71 -123 -254 -194
-405 -282 -601 -474 -857 -720 -960 -341 -142 -644 40 -644 386 0 236 171 519
378 623 157 79 331 60 401 -46 58 -87 55 -203 -7 -337 -49 -104 -129 -193
-208 -232 -46 -23 -64 -26 -126 -23 -82 4 -99 -8 -41 -29 58 -21 150 -10 228
27 91 42 162 117 217 227 39 80 43 93 46 183 4 84 1 104 -18 149 -26 59 -68
100 -143 139 -69 35 -200 43 -297 18 -103 -26 -213 -90 -298 -172 -41 -40 -77
-73 -79 -73 -1 0 -3 11 -3 24 0 54 -22 34 -66 -61 -69 -147 -87 -231 -82 -375
4 -127 1 -129 -37 -19 -31 93 -38 142 -30 217 6 56 10 65 33 76 62 30 97 151
56 192 -19 20 -28 20 -63 1 -40 -20 -55 -63 -49 -143 3 -37 3 -87 -1 -112 l-7
-45 -12 65 c-19 108 -25 213 -13 242 16 42 79 81 189 117 79 26 111 43 152 78
46 41 124 142 116 150 -3 3 -98 -39 -233 -103 -84 -40 -161 -103 -199 -163
-37 -61 -39 -59 -24 20 14 73 60 122 106 113 24 -4 41 1 74 22 67 44 90 109
48 138 -19 13 -25 13 -57 0 -42 -17 -101 -76 -101 -101 -1 -10 -15 -34 -32
-53 l-30 -35 6 30 c27 119 52 151 168 212 100 52 191 145 242 245 22 43 37 80
35 83 -3 2 -39 -15 -81 -40 -94 -55 -222 -174 -279 -260 -23 -36 -44 -65 -45
-65 -2 0 7 28 18 62 15 42 43 90 90 149 76 96 130 208 154 317 8 37 17 80 21
96 l6 30 -42 -34 c-64 -52 -146 -166 -180 -250 -18 -46 -35 -113 -42 -170 -7
-52 -23 -123 -36 -158 -12 -34 -23 -72 -23 -84 0 -12 -3 -18 -7 -15 -3 4 -7
91 -8 195 -2 183 -12 265 -45 347 l-12 30 -16 -35 c-28 -66 -42 -135 -42 -210
0 -87 15 -149 57 -240 47 -103 56 -145 44 -220 -6 -36 -11 -69 -11 -75 0 -5
-7 3 -15 18 -11 21 -12 34 -5 48 18 33 1 118 -32 155 -35 39 -59 43 -89 13
-18 -18 -20 -28 -14 -72 9 -65 27 -92 76 -114 31 -15 41 -27 54 -65 9 -26 15
-68 13 -95 l-3 -47 -37 74 c-48 98 -121 178 -227 249 -92 62 -131 80 -131 61
0 -7 14 -39 31 -71 41 -77 136 -179 213 -231 67 -45 122 -93 137 -121 6 -10
16 -52 24 -95 7 -42 17 -90 21 -107 7 -30 7 -30 -14 -12 -13 12 -23 37 -27 70
-8 60 -24 93 -57 123 -36 34 -64 38 -87 15 -56 -56 8 -164 119 -200 24 -7 43
-24 62 -53 27 -43 101 -219 95 -225 -2 -2 -28 31 -57 72 -35 50 -75 91 -116
120 -68 49 -203 120 -211 111 -10 -10 67 -135 118 -190 46 -51 117 -97 251
-165 40 -20 55 -36 92 -100 51 -89 149 -187 224 -225 86 -44 171 -59 302 -53
134 6 211 27 345 94 240 120 445 331 629 646 60 103 164 315 273 557 36 80 83
183 105 230 22 47 60 126 84 177 122 261 304 516 404 568 38 19 38 25 1 25
-16 0 -65 -18 -110 -41z m-2200 -434 c-11 -19 -37 -73 -57 -120 -40 -93 -58
-111 -24 -24 24 60 88 179 96 179 4 0 -3 -16 -15 -35z m-274 -182 c-3 -10 -5
-4 -5 12 0 17 2 24 5 18 2 -7 2 -21 0 -30z m27 -163 c5 -27 4 -30 -4 -13 -5
12 -11 50 -14 85 -5 61 -5 61 4 13 5 -27 11 -66 14 -85z m301 78 c-22 -18 -68
-60 -102 -94 -67 -67 -77 -72 -40 -22 20 27 165 148 177 148 3 -1 -13 -15 -35
-32z m-385 -218 c13 -9 13 -11 0 -20 -21 -14 -40 -12 -40 3 0 26 16 33 40 17z
m331 -5 c-1 -15 -24 -12 -29 3 -3 9 2 13 12 10 10 -1 17 -7 17 -13z m8 -148
c-16 -12 -79 -45 -79 -42 0 7 63 45 74 45 5 0 7 -1 5 -3z m-424 -67 c33 -33
57 -60 54 -60 -2 0 -31 27 -64 60 -33 33 -57 60 -54 60 2 0 31 -27 64 -60z
m325 -165 c0 -17 -2 -18 -24 -9 -23 9 -20 24 4 24 11 0 20 -7 20 -15z m-277
-70 c1 -5 -6 -11 -15 -13 -11 -2 -18 3 -18 13 0 17 30 18 33 0z m321 -225
c-13 -63 -14 -63 -8 -12 2 29 7 59 11 68 11 31 10 7 -3 -56z m-17 -117 c-3
-10 -5 -4 -5 12 0 17 2 24 5 18 2 -7 2 -21 0 -30z m-157 -58 c14 -16 -2 -7
-35 20 -79 62 -91 75 -35 38 25 -17 56 -43 70 -58z"/>
<path d="M5641 4656 c-14 -15 -25 -42 -28 -68 -4 -37 -1 -49 22 -76 15 -18 40
-39 56 -47 22 -12 32 -29 49 -84 25 -86 26 -85 -9 -51 -35 36 -73 46 -111 30
-69 -28 -85 -131 -31 -192 25 -28 37 -33 88 -38 l58 -5 13 -50 c13 -51 11
-192 -4 -216 -8 -13 -34 59 -34 94 0 61 -69 129 -109 107 -57 -30 -23 -109 67
-154 37 -19 52 -49 52 -107 0 -45 -40 -166 -70 -213 l-20 -31 0 34 c0 22 8 43
21 57 13 14 23 41 26 68 5 38 1 53 -20 84 -14 22 -41 46 -61 56 -32 15 -38 15
-66 1 -58 -30 -77 -112 -40 -173 18 -29 50 -49 104 -66 31 -10 15 -97 -30
-163 -31 -45 -132 -143 -147 -143 -3 0 -2 12 2 26 4 18 21 33 51 48 48 23 66
49 75 111 8 51 -21 100 -71 121 -33 14 -42 13 -97 -3 -74 -22 -107 -61 -107
-128 0 -54 28 -91 88 -116 43 -19 44 -20 37 -57 -10 -53 -12 -54 -44 -21 -18
17 -40 29 -56 29 -14 0 -40 7 -57 16 -42 22 -92 11 -118 -25 -30 -43 -25 -52
16 -35 20 8 38 13 40 11 3 -2 -9 -10 -26 -17 -17 -7 -40 -24 -52 -39 l-21 -26
6 38 c7 42 6 42 -32 22 -33 -16 -56 -64 -46 -94 4 -14 -1 -30 -14 -47 -26 -33
-26 -57 -2 -110 20 -44 54 -74 84 -74 10 0 29 -13 43 -29 29 -35 61 -42 111
-25 21 7 54 11 74 8 25 -4 51 0 83 14 56 25 75 59 58 104 -9 25 -8 35 6 55
l16 26 27 -33 c16 -18 34 -60 44 -98 9 -37 28 -87 42 -112 27 -48 91 -120 106
-120 6 0 8 29 5 68 -6 85 -50 173 -116 234 -36 33 -40 40 -21 35 13 -4 29 -7
35 -7 22 0 73 -63 104 -127 39 -84 73 -129 114 -154 47 -28 59 -25 51 14 -19
85 -97 192 -167 228 -54 28 -47 32 15 8 73 -28 160 -87 196 -133 29 -36 31
-44 31 -120 0 -68 4 -91 26 -134 29 -58 58 -82 68 -56 11 28 5 128 -9 169 -8
22 -15 42 -15 44 0 2 20 -14 43 -36 78 -72 162 -81 211 -22 44 52 27 133 -34
164 -58 30 -125 -22 -106 -83 7 -20 34 -37 44 -27 3 3 -2 13 -11 23 -10 10
-17 25 -17 33 0 42 66 53 100 17 27 -29 28 -98 1 -122 -27 -24 -92 -23 -133 2
-44 28 -196 182 -179 182 7 0 31 -18 53 -40 43 -43 58 -49 58 -24 0 44 -50 80
-145 103 -27 7 -75 28 -105 48 -51 32 -52 34 -20 26 75 -17 161 -10 223 20 31
16 57 34 57 42 0 43 -150 45 -240 3 -79 -37 -105 -40 -195 -23 -44 8 -91 15
-105 15 -22 0 -28 7 -38 46 -7 27 -25 58 -42 74 l-30 28 25 31 c42 49 88 73
137 69 35 -2 45 -8 56 -31 17 -36 65 -60 102 -52 34 7 100 76 100 104 0 33
-11 51 -41 66 -56 30 -128 12 -166 -41 -14 -19 -26 -25 -46 -22 l-28 3 40 53
c22 29 42 61 46 71 3 10 27 30 53 44 47 25 48 25 72 7 41 -31 103 -44 144 -30
53 17 106 99 106 164 0 57 -102 128 -163 112 -39 -9 -84 -53 -97 -92 -19 -56
-21 -34 -3 26 18 63 55 122 88 144 18 12 31 13 56 6 104 -30 190 18 206 113 7
45 -27 119 -63 135 -55 26 -133 5 -177 -47 -33 -40 -41 -80 -26 -131 12 -40
12 -42 -21 -73 -32 -31 -32 -31 -26 -7 3 14 11 72 16 130 14 145 18 168 43
227 16 38 28 53 42 53 74 2 147 127 114 195 -41 85 -158 52 -190 -53 -11 -38
-10 -48 9 -95 22 -52 22 -52 3 -102 -10 -28 -23 -73 -27 -100 l-8 -50 -7 35
c-5 23 -3 50 7 78 19 58 18 90 -8 189 l-22 85 22 38 c31 54 29 110 -4 149 -33
40 -80 42 -113 7z m229 -294 c0 -5 -7 -17 -15 -28 -14 -18 -14 -17 -4 9 12 27
19 34 19 19z m-150 -201 c-1 -11 -50 50 -50 62 0 6 11 -4 25 -23 14 -19 25
-36 25 -39z m205 -182 c-22 -22 -49 -45 -60 -50 -11 -6 5 12 35 40 67 61 78
66 25 10z m-317 -310 c-3 -20 -5 -19 -9 9 -3 20 -2 29 4 23 5 -5 7 -19 5 -32z
m197 -33 c-38 -19 -71 -33 -73 -31 -5 4 33 26 83 47 69 29 63 19 -10 -16z
m-97 -15 c0 -30 -5 -41 -23 -49 l-23 -10 21 49 c12 27 22 49 23 49 2 0 3 -18
2 -39z m-283 -209 c-10 -69 -17 -42 -8 34 5 43 9 58 11 40 2 -17 1 -50 -3 -74z
m225 -42 c12 -8 9 -10 -12 -10 -16 0 -28 5 -28 10 0 13 20 13 40 0z m-355
-110 c68 -42 66 -113 -4 -152 -26 -15 -44 -17 -80 -12 -43 7 -45 6 -32 -10 21
-25 66 -46 99 -46 43 0 94 39 106 80 8 29 10 31 13 13 6 -31 -10 -55 -56 -88
-34 -23 -48 -27 -82 -22 -49 7 -109 45 -109 71 0 11 -3 16 -7 12 -4 -3 -13 4
-20 16 -11 21 -12 22 -13 3 0 -11 9 -35 20 -52 11 -18 17 -33 15 -33 -3 0 -14
15 -25 33 -23 38 -25 72 -5 107 14 25 14 25 16 -15 l1 -40 8 38 c9 48 10 49
69 55 44 4 51 2 66 -22 10 -15 15 -37 13 -51 -6 -29 -1 -31 24 -8 42 38 6 111
-66 132 -27 8 -28 9 -7 10 13 1 38 -8 56 -19z m-150 -265 c33 -15 67 -29 75
-30 8 -1 29 -5 46 -9 37 -8 83 7 107 37 l18 22 -11 -23 c-19 -39 -55 -55 -110
-50 -50 5 -50 5 -33 -15 13 -14 13 -18 3 -12 -8 5 -23 19 -32 31 -10 12 -30
25 -45 29 -41 10 -92 44 -104 68 l-10 22 18 -21 c10 -11 45 -33 78 -49z"/>
<path d="M5180 3191 c-5 -11 -10 -26 -10 -35 0 -19 38 -46 65 -45 19 0 19 1
-1 9 -12 5 -25 13 -29 19 -10 16 4 51 21 51 17 0 19 -17 2 -23 -10 -4 -10 -7
-1 -17 15 -17 43 3 43 30 0 34 -73 42 -90 11z"/>
<path d="M5464 4625 c-7 -18 3 -35 21 -35 18 0 26 25 12 39 -15 15 -27 14 -33
-4z"/>
<path d="M5382 4523 c-13 -25 -4 -43 19 -43 25 0 35 25 19 45 -16 20 -27 19
-38 -2z"/>
<path d="M4492 4458 c-19 -19 -15 -58 6 -58 37 0 58 52 26 64 -20 8 -18 8 -32
-6z"/>
<path d="M5480 4439 c0 -24 23 -21 28 4 2 10 -3 17 -12 17 -10 0 -16 -9 -16
-21z"/>
<path d="M5100 4384 c-186 -48 -391 -210 -570 -449 -109 -147 -242 -394 -425
-790 -48 -104 -92 -196 -99 -204 -8 -11 -32 -12 -113 -7 -62 3 -103 2 -103 -4
0 -11 63 -30 100 -30 14 0 41 -3 62 -6 l36 -6 -75 -157 c-116 -243 -267 -496
-331 -554 -20 -18 -23 -18 -116 17 -140 53 -206 66 -351 73 -197 8 -330 -27
-424 -113 -48 -42 -65 -72 -75 -126 -11 -62 8 -111 65 -162 74 -67 128 -80
294 -73 182 7 307 49 500 167 l66 40 42 -21 c23 -12 116 -62 207 -112 448
-246 670 -321 945 -321 160 0 269 24 400 89 325 159 517 495 454 797 -59 283
-349 438 -644 344 -151 -48 -268 -148 -334 -286 -34 -71 -36 -81 -36 -175 0
-91 3 -105 29 -158 35 -68 108 -140 174 -170 38 -18 65 -22 142 -21 111 0 147
13 215 75 48 44 67 74 90 140 24 66 -2 53 -41 -21 -43 -83 -73 -111 -151 -140
-138 -52 -285 12 -348 151 -25 56 -27 70 -23 149 5 116 44 196 137 289 134
133 297 177 468 126 161 -48 270 -205 281 -405 9 -178 -49 -324 -182 -455
-173 -171 -399 -228 -677 -170 -169 35 -345 101 -679 255 -129 59 -259 118
-287 130 -29 12 -53 23 -53 25 0 1 37 40 83 86 173 176 360 445 447 643 31 71
35 76 79 92 445 161 825 470 1037 841 132 233 151 454 46 556 -65 64 -150 81
-262 51z m173 -38 c66 -27 107 -102 107 -196 -1 -160 -129 -415 -320 -635
-193 -223 -490 -428 -751 -520 -21 -8 -39 -12 -39 -9 0 4 58 133 213 469 242
528 410 771 595 862 88 43 143 51 195 29z m-2222 -2156 c81 -12 226 -59 333
-108 l78 -37 -63 -47 c-156 -116 -325 -173 -488 -166 -114 5 -175 28 -216 82
-82 108 -11 229 160 270 73 17 110 19 196 6z"/>
<path d="M4002 4212 c-63 -23 -96 -52 -127 -112 -25 -50 -42 -135 -28 -143 5
-3 19 16 31 43 29 63 62 84 132 84 95 0 150 -52 150 -142 0 -34 -4 -41 -29
-52 -50 -20 -95 22 -59 58 9 9 7 13 -7 18 -23 9 -47 -22 -39 -50 16 -54 66
-76 114 -51 l30 16 0 -111 c0 -76 5 -122 15 -147 21 -49 31 -34 15 21 -11 41
-10 53 15 138 43 147 47 169 43 245 -3 60 -8 78 -33 114 -56 79 -131 103 -223
71z m149 -35 c92 -62 109 -161 57 -332 -12 -39 -13 -37 -18 61 -5 79 -11 108
-28 136 -51 82 -204 91 -266 17 -31 -36 -33 -31 -7 19 56 108 179 155 262 99z"/>
<path d="M3074 3955 c-4 -10 -13 -13 -25 -10 -21 7 -79 -20 -79 -37 0 -7 12
-25 27 -40 24 -25 26 -32 17 -56 -11 -28 -95 -151 -104 -151 -3 -1 -13 12 -22
29 -9 16 -28 32 -43 36 -30 7 -81 -11 -89 -33 -5 -12 -2 -13 11 -7 10 4 35 9
55 12 33 4 38 1 54 -30 26 -50 24 -196 -4 -269 -12 -30 -29 -64 -37 -75 -14
-18 -15 -17 -8 11 12 44 8 155 -6 197 -17 52 -63 88 -112 88 -70 0 -105 -63
-53 -96 22 -15 31 -16 60 -5 40 14 55 7 80 -40 28 -56 9 -166 -52 -298 -19
-41 -32 -76 -30 -78 2 -2 23 29 47 69 24 40 59 98 79 128 53 80 70 132 80 241
6 78 13 106 35 144 16 26 34 49 41 52 7 2 21 24 31 48 14 36 22 43 38 39 15
-4 27 4 44 27 22 29 22 33 8 44 -15 11 -15 13 0 28 9 8 13 23 10 31 -8 20 -46
21 -53 1z"/>
<path d="M1980 3905 c-10 -12 -10 -18 0 -29 16 -20 42 -8 38 17 -4 26 -21 32
-38 12z"/>
<path d="M1895 3851 c-6 -11 9 -23 19 -14 9 9 7 23 -3 23 -6 0 -12 -4 -16 -9z"/>
<path d="M1965 3790 c-11 -17 5 -32 21 -19 7 6 11 15 8 20 -7 12 -21 11 -29
-1z"/>
<path d="M3683 3775 c-98 -49 -173 -162 -159 -239 4 -18 17 -50 31 -69 l24
-36 -74 -46 c-86 -53 -144 -115 -182 -193 -33 -68 -38 -176 -11 -228 50 -94
150 -135 279 -115 85 14 111 26 168 83 59 59 87 102 106 171 19 67 13 124 -16
162 -11 13 -18 29 -15 33 3 5 34 17 69 26 102 28 166 93 169 171 2 43 -18 67
-51 63 -36 -4 -40 -35 -7 -48 33 -12 33 -30 0 -69 -20 -24 -46 -37 -112 -57
-143 -43 -190 -64 -241 -110 -55 -49 -81 -96 -81 -146 0 -27 17 -76 21 -58 0
3 2 18 4 34 9 65 104 159 162 159 71 0 85 -117 27 -230 -35 -69 -52 -75 -113
-34 -25 17 -49 27 -53 24 -14 -8 19 -39 60 -59 l36 -17 -27 -22 c-14 -13 -48
-28 -75 -34 -148 -31 -231 84 -191 268 14 67 76 160 139 210 46 36 58 41 105
41 30 0 57 5 61 11 11 18 -14 33 -51 31 -49 -4 -69 29 -63 107 3 44 12 70 37
110 41 64 80 92 136 98 36 5 45 2 59 -18 31 -45 19 -97 -37 -156 l-31 -33 31
0 c44 0 99 53 109 105 8 47 -17 102 -56 122 -43 22 -130 16 -187 -12z"/>
<path d="M6124 3755 c-16 -24 -16 -28 1 -68 29 -70 65 -180 65 -200 0 -14 -4
-16 -18 -8 -14 7 -17 18 -14 44 4 36 -12 57 -30 39 -8 -8 -16 -5 -27 9 -20 26
-46 17 -67 -22 -8 -16 -19 -28 -25 -26 -22 4 -34 -30 -20 -56 7 -14 10 -30 6
-36 -4 -7 11 -19 39 -32 46 -20 51 -28 47 -83 -2 -18 1 -26 8 -21 6 3 11 27
11 52 0 91 71 154 78 70 4 -48 -34 -117 -80 -145 -31 -19 -166 -52 -211 -52
-20 0 -20 1 5 28 56 59 86 132 54 132 -24 0 -65 -42 -94 -95 -19 -34 -43 -60
-77 -82 -76 -48 -97 -64 -91 -70 3 -3 26 7 51 21 79 47 267 70 358 45 60 -16
78 -40 71 -93 -6 -39 -4 -46 19 -61 48 -31 89 7 73 69 -7 27 -112 101 -158
111 l-30 7 41 25 c29 17 58 50 96 109 30 46 59 84 65 84 6 0 19 -6 30 -12 16
-10 23 -10 36 4 15 15 14 18 -5 37 -26 26 -55 21 -88 -15 -12 -13 -23 -24 -25
-24 -2 0 -4 18 -5 40 -1 22 -10 56 -18 77 -15 35 -15 39 2 51 17 13 47 12 115
-4 21 -5 29 -2 35 11 9 26 -23 45 -76 45 l-46 1 35 17 c19 9 35 24 35 32 0 30
-34 20 -80 -24 -26 -25 -44 -38 -40 -28 4 9 10 41 13 70 4 51 4 52 -22 52 -16
0 -31 -9 -42 -25z m-5 -258 c-2 -2 -17 -11 -34 -21 l-30 -17 24 20 c13 12 28
21 34 21 6 0 8 -1 6 -3z"/>
<path d="M2062 3761 c-20 -12 -10 -46 14 -49 25 -4 40 24 23 44 -13 16 -19 17
-37 5z"/>
<path d="M2862 3748 c2 -12 10 -23 18 -23 22 0 19 39 -3 43 -15 3 -18 -1 -15
-20z"/>
<path d="M2982 3707 c-16 -18 -4 -55 20 -63 35 -11 50 32 22 60 -19 19 -28 20
-42 3z"/>
<path d="M1956 3662 c-8 -13 11 -35 23 -28 16 10 14 36 -3 36 -8 0 -17 -4 -20
-8z"/>
<path d="M2655 3400 c-8 -13 3 -30 20 -30 14 0 27 24 18 34 -10 9 -31 7 -38
-4z"/>
<path d="M5502 3284 c-64 -45 13 -171 99 -162 70 7 93 102 29 115 -17 3 -30
11 -30 19 0 16 -38 44 -60 44 -9 0 -26 -7 -38 -16z m70 -56 c-3 -41 3 -45 32
-23 19 15 46 5 46 -16 0 -16 -44 -49 -66 -49 -23 0 -58 36 -69 70 -9 29 13 62
38 58 19 -3 22 -8 19 -40z"/>
<path d="M4785 3062 c-16 -10 -47 -39 -67 -64 -22 -27 -58 -55 -90 -70 -74
-36 -166 -107 -240 -187 -62 -67 -135 -174 -283 -416 -40 -66 -92 -142 -115
-168 -23 -26 -40 -50 -38 -53 10 -9 84 22 141 60 107 71 204 93 267 61 38 -20
60 -53 60 -91 0 -56 -67 -88 -91 -43 -7 14 -14 18 -21 11 -15 -15 8 -51 39
-58 33 -9 72 12 92 48 21 37 2 149 -31 185 -28 31 -77 53 -117 53 -48 0 -134
-37 -182 -78 -43 -36 -44 -36 -25 -7 11 17 43 67 70 112 83 134 113 172 163
203 52 33 112 40 133 15 18 -22 15 -66 -6 -82 -16 -12 -21 -11 -36 9 -14 19
-19 21 -30 10 -20 -20 3 -47 45 -50 27 -2 39 2 51 20 18 25 21 70 6 98 -23 42
-105 45 -166 5 -38 -25 -28 -5 37 75 81 99 173 178 222 191 35 9 44 8 66 -9
29 -21 36 -42 27 -78 -12 -48 -76 -55 -76 -7 0 18 -5 24 -17 21 -25 -5 -28
-36 -7 -59 27 -30 77 -25 108 12 45 54 31 109 -36 139 l-41 18 42 21 c23 12
66 26 95 32 63 11 97 2 142 -42 41 -40 79 -37 79 5 0 41 -40 68 -111 74 l-56
5 31 19 c23 15 31 27 31 49 0 35 -20 38 -65 11z"/>
<path d="M3083 2845 c-3 -10 -1 -32 5 -49 14 -37 15 -102 2 -131 -8 -19 -9
-19 -9 2 -1 36 -23 73 -43 73 -25 0 -23 -27 7 -62 14 -16 25 -39 25 -51 0 -29
-43 -88 -99 -135 l-47 -40 18 51 c21 64 23 101 3 117 -26 21 -37 2 -30 -55 8
-65 -13 -118 -59 -146 -30 -19 -113 -46 -206 -68 -42 -10 -41 -10 25 -6 76 5
141 22 201 53 22 11 70 27 108 36 l68 18 51 -26 c53 -28 61 -28 52 -3 -11 26
-61 40 -127 34 -68 -6 -68 -7 27 63 86 64 210 125 295 146 140 35 250 -31 250
-150 0 -77 -72 -137 -125 -102 -16 11 -21 21 -18 40 4 18 0 28 -11 32 -21 8
-23 6 -31 -28 -11 -42 31 -78 91 -78 39 0 51 5 79 33 76 76 48 209 -56 262
-98 51 -261 16 -416 -88 -29 -20 -53 -32 -53 -27 0 5 5 12 11 16 6 3 22 32 36
63 35 80 67 111 116 111 27 0 37 4 34 13 -7 21 -84 13 -112 -13 l-24 -23 -3
63 c-3 63 -21 91 -35 55z"/>
<path d="M1243 2735 c-29 -20 -50 -111 -35 -153 8 -23 7 -33 -5 -45 -15 -14
-15 -18 1 -41 24 -37 87 -66 143 -66 62 -1 110 -24 161 -80 l41 -46 -43 -22
c-80 -43 -109 -139 -56 -187 38 -34 101 8 65 44 -13 14 -15 14 -15 -1 0 -23
-18 -32 -35 -18 -26 21 -18 76 15 114 51 58 74 57 211 -13 103 -52 128 -61
174 -61 57 0 85 7 85 21 0 5 -9 9 -20 9 -12 0 -34 7 -50 15 -24 12 -29 22 -32
57 -4 54 -31 61 -36 9 -3 -26 3 -40 24 -62 26 -27 27 -29 7 -29 -32 0 -144 62
-166 92 l-20 26 32 38 c36 44 38 54 13 54 -21 0 -45 -24 -56 -54 -11 -33 -30
-1 -31 52 0 40 -3 47 -20 47 -32 0 -30 -40 5 -96 17 -28 30 -53 28 -55 -9 -9
-70 39 -97 77 -40 55 -48 100 -26 149 19 42 14 60 -15 60 -27 0 -43 -35 -35
-76 3 -19 3 -34 -1 -34 -9 0 -131 47 -161 62 -34 17 -54 54 -56 103 -2 50 6
63 28 45 19 -16 45 -6 45 18 0 10 -10 28 -23 40 -21 20 -25 20 -44 7z"/>
<path d="M5594 2672 c10 -12 35 -54 55 -94 31 -63 40 -73 66 -76 30 -4 55 17
55 46 0 12 -3 12 -15 2 -25 -20 -47 -7 -89 54 -23 33 -52 66 -66 75 l-25 15
19 -22z"/>
<path d="M1394 2665 c-8 -19 12 -36 33 -28 19 7 12 37 -10 41 -9 2 -20 -4 -23
-13z"/>
<path d="M5784 2646 c-7 -19 3 -36 22 -36 10 0 14 8 12 22 -4 26 -26 36 -34
14z"/>
<path d="M5880 2556 c-28 -35 11 -93 48 -70 35 22 22 84 -18 84 -10 0 -23 -7
-30 -14z"/>
<path d="M6115 2550 c-8 -13 14 -42 26 -34 5 3 9 14 9 25 0 20 -24 26 -35 9z"/>
<path d="M3223 2524 c-8 -20 8 -36 26 -25 15 10 8 41 -9 41 -6 0 -13 -7 -17
-16z"/>
<path d="M2757 2514 c-16 -16 -7 -44 14 -44 15 0 20 5 17 22 -3 22 -19 33 -31
22z"/>
<path d="M5694 2405 c-3 -8 -3 -19 1 -25 11 -18 25 -11 25 15 0 27 -17 34 -26
10z"/>
<path d="M5944 2405 c-4 -9 -2 -21 4 -27 16 -16 47 -5 47 17 0 26 -42 34 -51
10z"/>
<path d="M5797 2384 c-11 -15 -25 -23 -34 -20 -9 4 -19 -6 -28 -29 -18 -42
-10 -69 39 -123 l36 -39 -17 -54 -16 -54 -8 44 c-5 24 -14 49 -20 57 -17 20
-47 17 -59 -6 -14 -26 23 -68 44 -50 10 8 15 5 20 -12 15 -58 -3 -117 -54
-178 -20 -23 -21 -24 -10 -2 16 33 9 93 -13 106 -26 16 -50 -18 -42 -59 24
-115 17 -134 -65 -184 l-51 -31 16 31 c9 17 13 34 9 37 -4 4 -8 2 -11 -4 -2
-6 -22 -39 -46 -74 -112 -171 -371 -306 -649 -340 -98 -12 -264 0 -383 27 -82
18 -238 77 -350 132 -44 22 -81 38 -82 37 -7 -7 186 -108 264 -139 152 -60
264 -80 453 -80 145 0 177 3 261 26 111 29 215 72 310 129 81 48 154 60 195
33 26 -17 26 -19 9 -31 -11 -8 -15 -19 -11 -30 6 -15 9 -15 29 -2 12 9 23 27
25 41 5 41 -47 69 -113 62 l-50 -6 67 65 c93 90 158 122 198 96 12 -8 12 -11
-3 -28 -32 -35 -10 -81 33 -67 50 16 47 77 -6 112 l-26 16 59 19 c66 20 74 22
54 9 -22 -14 1 -59 34 -67 33 -8 74 3 82 22 7 20 -25 54 -51 54 -15 0 -17 3
-8 12 15 15 16 55 2 63 -12 7 -56 -19 -80 -47 -17 -20 -90 -53 -90 -40 0 10
45 72 87 119 15 17 42 38 60 47 31 15 33 15 47 -6 13 -19 25 -22 72 -21 69 2
102 25 70 48 -16 12 -17 17 -6 30 7 8 9 22 6 31 -4 9 -1 22 5 30 7 9 7 18 -1
33 -13 25 -35 27 -44 6 -4 -11 -13 -14 -29 -10 -19 5 -31 -1 -55 -30 -18 -19
-32 -44 -32 -55 0 -12 -12 -26 -30 -35 -23 -12 -30 -12 -29 -3 1 30 55 162 69
168 8 4 28 14 43 21 38 18 68 61 74 109 5 32 2 40 -10 40 -9 0 -19 -4 -22 -10
-12 -19 -22 -10 -17 15 6 35 -15 58 -50 51 -15 -3 -30 -1 -33 4 -9 15 -18 12
-38 -16z m47 -109 c4 -19 2 -43 -3 -53 -8 -13 -10 -8 -11 26 0 23 -5 42 -11
42 -5 0 -7 5 -4 10 12 19 23 10 29 -25z m-37 -42 c-3 -10 -5 -2 -5 17 0 19 2
27 5 18 2 -10 2 -26 0 -35z m73 -2 c-20 -30 -40 -44 -23 -18 27 42 38 56 41
52 2 -2 -6 -18 -18 -34z m60 -195 c0 -2 -9 -6 -20 -9 -11 -3 -20 -1 -20 4 0 5
9 9 20 9 11 0 20 -2 20 -4z"/>
<path d="M1340 2311 c0 -12 6 -21 16 -21 9 0 14 7 12 17 -5 25 -28 28 -28 4z"/>
<path d="M2068 2284 c-61 -32 -73 -106 -33 -192 14 -30 25 -62 25 -72 0 -45
89 -76 143 -49 19 9 19 8 -3 -11 l-25 -21 48 4 c58 6 90 32 113 94 23 60 8
110 -46 153 -49 39 -52 57 -6 29 60 -35 91 -128 65 -195 -10 -27 -9 -27 9 -11
25 23 41 79 41 146 0 65 -19 105 -59 126 -45 23 -110 18 -110 -10 0 -9 -10 -8
-37 6 -44 23 -88 24 -125 3z m148 -85 c19 -11 34 -24 34 -27 0 -4 3 -18 7 -32
6 -24 6 -24 -11 -7 -10 9 -32 17 -51 17 -36 0 -57 -22 -47 -50 3 -11 2 -12 -8
-4 -26 25 31 81 70 69 26 -8 26 11 1 25 -31 16 -69 12 -96 -12 -29 -25 -32
-63 -8 -98 28 -40 45 -49 95 -50 41 0 50 4 72 33 31 38 34 26 6 -20 -18 -30
-24 -33 -69 -33 -65 0 -95 14 -115 56 -24 51 -21 100 9 129 30 31 67 32 111 4z
m14 -95 c0 -8 5 -14 12 -14 6 0 3 -9 -7 -20 -22 -24 -37 -26 -28 -4 4 10 0 20
-10 26 -20 11 -22 34 -4 41 15 6 37 -11 37 -29z"/>
<path d="M2493 2293 c-7 -3 -13 -16 -13 -29 0 -19 5 -24 25 -24 20 0 25 5 25
24 0 25 -15 36 -37 29z"/>
<path d="M2597 2253 c-13 -12 -7 -23 13 -23 11 0 20 7 20 15 0 15 -21 21 -33
8z"/>
<path d="M2411 2110 c-27 -110 -93 -171 -192 -178 -72 -5 -143 23 -160 65 -7
15 -20 46 -29 68 -10 22 -21 49 -25 60 -6 19 -8 18 -30 -9 -33 -41 -38 -70
-20 -108 52 -111 135 -162 218 -133 35 12 38 12 26 -1 -8 -8 -35 -20 -59 -28
-39 -12 -41 -14 -17 -15 21 -1 28 -5 25 -18 -2 -13 -16 -20 -46 -24 -58 -7
-80 -41 -47 -69 13 -11 21 -8 45 15 l30 29 0 -32 c0 -20 -9 -40 -26 -57 -29
-29 -28 -55 1 -70 11 -5 20 -19 20 -30 0 -11 7 -20 15 -20 9 0 15 9 15 22 0
13 6 28 13 35 17 17 15 39 -8 63 -17 18 -18 26 -9 58 11 40 29 41 29 1 0 -24
31 -64 50 -64 15 0 23 46 11 68 -6 12 -20 24 -31 27 -11 4 -27 19 -35 35 -15
28 -14 30 10 46 20 13 29 14 38 5 23 -23 53 -11 105 44 29 30 58 55 64 55 6 0
1 -11 -12 -25 l-24 -25 30 -32 29 -31 -36 27 -37 27 -5 -28 c-7 -34 8 -52 71
-86 31 -17 71 -28 120 -33 l74 -7 -35 70 c-36 70 -103 143 -133 143 -12 0 -14
5 -9 18 39 89 41 126 11 167 -13 18 -15 17 -25 -25z"/>
<path d="M1685 2057 c-71 -40 -105 -62 -105 -68 0 -13 119 -41 168 -40 74 1
172 48 172 80 0 5 -23 18 -51 30 -68 28 -133 27 -184 -2z m224 -33 c2 -2 -31
-3 -75 -3 -65 2 -72 3 -39 9 36 6 104 3 114 -6z"/>
<path d="M6022 2048 c-19 -19 -14 -30 10 -26 13 2 24 11 26 21 4 20 -18 23
-36 5z"/>
<path d="M1910 1944 c-44 -19 -96 -69 -120 -114 -10 -19 -21 -66 -25 -103 l-7
-68 68 37 c117 63 164 120 164 199 0 41 -7 43 -46 13 l-29 -22 28 30 c39 43
27 54 -33 28z"/>
<path d="M5944 1865 c-4 -9 -2 -21 4 -27 15 -15 44 -1 40 19 -4 23 -36 29 -44
8z"/>
<path d="M3490 1846 c0 -3 29 -19 65 -36 112 -53 155 -113 155 -217 0 -79 -38
-138 -97 -149 -43 -8 -86 18 -81 49 2 14 10 22 23 22 11 0 20 7 20 15 0 10
-10 15 -29 15 -61 0 -51 -98 13 -125 41 -16 82 -5 118 33 44 46 53 69 53 129
0 66 16 48 26 -29 5 -46 2 -61 -21 -109 -23 -47 -35 -60 -72 -76 -52 -23 -56
-51 -8 -56 43 -4 93 31 115 81 63 137 -48 381 -197 437 -52 19 -83 25 -83 16z"/>
<path d="M2250 1801 c0 -6 12 -40 26 -75 l26 -65 -21 -56 c-31 -83 -27 -145
10 -145 29 0 41 36 37 114 l-3 71 72 -75 c59 -62 74 -85 88 -132 9 -32 20 -58
26 -58 13 0 11 25 -6 67 -8 19 -15 37 -15 39 0 10 139 -61 163 -84 46 -44 32
-131 -20 -120 -11 2 -17 11 -16 23 4 39 -5 49 -27 30 -25 -23 -25 -40 0 -65
29 -29 74 -26 99 6 27 34 27 69 0 118 l-21 39 66 -5 c57 -5 73 -11 119 -46 90
-67 153 -95 234 -100 64 -4 79 -1 127 22 30 15 61 38 70 51 25 38 30 79 12 94
-21 18 -32 8 -45 -43 -30 -120 -180 -137 -336 -39 l-60 38 58 7 c34 4 82 20
115 38 31 16 83 39 115 51 43 15 64 30 82 57 14 20 25 42 25 49 0 21 53 75 87
90 39 16 68 5 78 -27 10 -31 -19 -70 -46 -63 -16 4 -20 2 -17 -8 6 -19 55 -24
75 -8 57 48 21 139 -55 139 -60 0 -106 -39 -144 -120 -28 -60 -36 -70 -58 -70
-37 0 -46 11 -45 55 0 38 -2 40 -31 41 -17 0 -40 10 -52 22 -12 12 -30 22 -39
22 -27 -1 -53 -25 -53 -48 0 -13 -11 -27 -27 -36 -17 -9 -22 -15 -12 -16 20 0
49 -31 49 -53 0 -8 12 -25 26 -36 l25 -20 -30 -16 c-39 -20 -114 -30 -134 -18
-13 7 -8 15 30 46 51 41 37 52 -17 12 -49 -36 -75 -32 -130 19 l-47 44 46 33
c25 19 52 46 61 61 13 25 13 29 -2 44 -22 22 -51 13 -117 -37 l-54 -41 -61 30
c-43 22 -83 32 -135 37 -40 4 -80 9 -87 12 -8 3 -26 27 -39 54 -24 47 -45 70
-45 50z m289 -170 c42 -22 53 -44 25 -55 -53 -20 -164 14 -198 61 l-19 26 75
-6 c47 -3 91 -13 117 -26z m25 -83 l99 2 46 -47 c54 -55 47 -61 -56 -43 -62
10 -175 60 -218 95 -19 16 -19 16 5 4 15 -8 63 -12 124 -11z m473 -15 c-3 -10
-5 -4 -5 12 0 17 2 24 5 18 2 -7 2 -21 0 -30z"/>
<path d="M3560 1714 c0 -9 5 -14 12 -12 18 6 21 28 4 28 -9 0 -16 -7 -16 -16z"/>
<path d="M3737 1718 c103 -130 116 -165 111 -290 -4 -119 -30 -177 -102 -225
-51 -35 -103 -43 -112 -18 -6 16 -44 21 -44 7 0 -20 39 -42 74 -42 43 0 89 21
129 59 35 32 55 69 77 141 l17 55 16 -31 c20 -39 66 -94 78 -94 4 0 13 19 20
42 16 60 -2 131 -52 209 -40 61 -40 62 -12 44 74 -47 137 -103 190 -168 69
-86 87 -103 131 -123 25 -11 37 -12 47 -4 10 8 22 4 50 -15 42 -28 99 -33 125
-10 12 11 28 12 78 5 76 -10 120 -4 153 21 l24 19 -77 0 c-52 0 -114 10 -193
30 -170 44 -309 117 -590 310 -123 85 -160 106 -138 78z"/>
<path d="M1890 1533 c0 -49 39 -130 81 -170 19 -17 59 -43 89 -57 30 -14 82
-50 115 -82 33 -31 49 -49 35 -40 -68 45 -132 68 -176 63 -24 -2 -51 -10 -59
-17 -14 -11 -14 -15 2 -32 41 -46 92 -57 225 -48 39 3 57 -3 115 -37 37 -22
92 -52 121 -67 62 -32 67 -41 11 -21 -77 28 -144 15 -175 -33 -20 -31 -5 -65
37 -82 42 -18 90 -5 135 37 l39 38 -40 6 c-28 5 -21 6 20 3 73 -5 308 -84 279
-94 -10 -4 -38 -1 -63 7 -60 18 -101 16 -134 -5 -84 -56 -73 -147 18 -158 57
-7 104 21 133 80 36 72 49 74 238 32 89 -20 165 -36 170 -37 5 0 0 -4 -11 -8
-11 -4 -36 -4 -55 2 -83 23 -185 -22 -214 -93 -28 -71 9 -120 90 -120 79 0
142 55 151 133 3 23 10 48 16 55 12 15 95 16 224 1 61 -7 99 -7 105 -1 6 6
-13 12 -54 17 -34 3 -87 13 -116 21 -29 8 -57 12 -62 9 -12 -7 -197 33 -237
52 -28 13 -36 25 -52 80 -31 104 -85 164 -159 179 -32 6 -32 6 -32 -35 0 -73
38 -140 105 -183 l30 -19 -35 7 c-56 11 -137 50 -149 72 -6 12 -11 42 -11 67
0 79 -50 149 -94 132 -20 -8 -30 -49 -21 -84 6 -27 64 -91 100 -111 11 -6 18
-13 15 -15 -3 -3 -48 16 -100 42 -90 44 -95 47 -93 76 10 121 8 140 -20 188
-30 50 -93 92 -122 81 -21 -8 -45 -56 -45 -89 0 -36 26 -95 58 -129 l27 -29
-31 18 c-16 9 -70 54 -118 99 -87 80 -88 82 -102 151 -8 39 -26 87 -39 107
-28 43 -89 78 -135 78 -28 0 -30 -2 -30 -37z m198 -207 c7 -12 -5 -1 -28 24
-23 25 -46 54 -52 65 -12 23 60 -58 80 -89z m311 -178 c18 -32 30 -58 27 -58
-7 0 -66 102 -66 114 0 12 2 10 39 -56z m225 -104 c3 -8 2 -12 -4 -9 -6 3 -10
10 -10 16 0 14 7 11 14 -7z m211 -69 c46 -57 46 -58 9 -23 -22 21 -48 52 -58
70 -22 39 -17 33 49 -47z m60 -86 c5 -5 -5 -4 -23 2 -17 6 -32 13 -32 16 0 7
43 -8 55 -18z m-200 -19 c-27 -12 -43 -12 -25 0 8 5 22 9 30 9 10 0 8 -3 -5
-9z m-45 -15 c0 -2 -10 -9 -22 -15 -22 -11 -22 -10 -4 4 21 17 26 19 26 11z
m420 -60 c0 -2 -14 -12 -31 -20 -16 -9 -49 -33 -72 -53 -31 -27 -36 -29 -17
-8 41 47 120 100 120 81z"/>
<path d="M5394 1505 c-4 -9 -2 -21 4 -27 15 -15 44 -1 40 19 -4 23 -36 29 -44
8z"/>
<path d="M2144 1417 c-12 -33 3 -107 32 -150 l28 -42 7 40 c9 51 -5 107 -36
142 -21 25 -24 26 -31 10z"/>
<path d="M5213 1404 c-9 -23 13 -40 32 -24 12 10 13 16 4 26 -15 18 -28 18
-36 -2z"/>
<path d="M5379 1396 c-75 -27 -131 -89 -155 -172 -9 -31 -27 -62 -47 -81 -34
-32 -121 -93 -133 -93 -4 0 16 24 44 54 57 60 84 125 62 150 -29 36 -85 -34
-96 -122 -9 -72 -37 -103 -130 -142 -42 -17 -78 -29 -81 -27 -2 3 22 20 54 39
73 42 112 108 97 165 -5 20 -16 41 -25 46 -24 15 -69 -1 -106 -38 -27 -27 -33
-40 -33 -77 0 -24 6 -53 14 -64 14 -18 16 -16 41 36 14 30 23 44 19 30 -9 -37
-48 -101 -81 -132 -26 -25 -248 -108 -288 -108 -21 0 -19 7 15 50 16 21 44 64
61 96 21 40 29 49 25 29 -8 -34 -46 -97 -85 -138 l-26 -29 53 21 c112 44 148
75 162 136 19 82 -32 144 -106 131 -80 -16 -127 -95 -125 -213 1 -59 -2 -74
-17 -82 -46 -24 -322 -59 -322 -40 0 11 31 21 82 24 102 8 168 76 168 173 0
21 -7 48 -16 60 -32 47 -157 18 -204 -48 -27 -38 -34 -83 -22 -137 10 -42 9
-43 -23 -63 -18 -11 -54 -24 -79 -29 -80 -15 -65 -24 26 -17 112 9 163 -4 186
-46 9 -17 30 -46 46 -64 23 -28 35 -34 67 -34 44 0 44 0 24 40 -20 39 -71 76
-122 89 -66 18 -59 28 22 36 53 5 81 3 101 -7 30 -14 31 -17 68 -100 30 -70
69 -98 139 -98 59 0 82 11 102 50 30 58 -5 125 -85 165 -27 14 -50 17 -120 12
l-85 -5 60 14 c33 7 99 23 146 34 103 25 129 19 158 -39 37 -71 110 -106 170
-81 60 24 65 90 11 140 -40 38 -72 41 -159 19 -41 -10 -76 -17 -78 -15 -2 2
56 27 129 56 73 28 138 54 145 57 7 3 31 -16 54 -41 53 -58 102 -75 147 -52
39 20 49 49 27 82 -35 54 -114 65 -190 27 -53 -27 -9 9 73 60 52 32 89 47 125
52 123 15 176 49 218 139 16 34 30 77 31 96 l3 35 -50 2 c-27 2 -66 -3 -86
-11z m-49 -157 c-70 -59 -94 -70 -35 -16 33 30 62 53 65 50 3 -2 -11 -18 -30
-34z m-215 -239 l20 -9 -20 0 c-11 0 -29 4 -40 9 l-20 9 20 0 c11 0 29 -4 40
-9z m-847 -40 c-22 -40 -87 -120 -72 -90 13 26 85 130 90 130 2 0 -6 -18 -18
-40z m582 -95 c59 -32 46 -32 -22 0 -29 14 -46 25 -38 24 8 0 35 -11 60 -24z
m-275 -130 c11 -9 -7 -2 -40 16 -33 17 -64 36 -70 42 -16 15 88 -39 110 -58z"/>
<path d="M5084 1349 c-8 -14 11 -33 25 -25 6 4 11 14 11 22 0 16 -26 19 -36 3z"/>
<path d="M4947 1314 c-9 -10 2 -24 19 -24 8 0 14 7 14 15 0 15 -21 21 -33 9z"/>
<path d="M2969 1120 c-25 -24 -29 -36 -29 -82 0 -88 56 -151 161 -178 24 -6
53 -14 64 -17 19 -5 19 -5 3 13 -13 15 -15 32 -11 86 9 107 -36 179 -125 199
-31 7 -39 4 -63 -21z m147 -228 l27 -37 -26 24 c-29 26 -52 70 -62 116 -3 18
2 11 14 -18 11 -27 32 -65 47 -85z"/>
<path d="M4085 1123 c-39 -20 -103 -81 -121 -115 -8 -15 -14 -47 -14 -72 0
-36 4 -46 20 -51 61 -19 158 127 148 222 l-3 31 -30 -15z m-77 -170 c-37 -67
-38 -69 -38 -57 0 11 59 114 65 114 3 0 -9 -26 -27 -57z"/>
<path d="M3253 1044 c10 -96 82 -182 175 -209 27 -8 29 9 6 84 -18 60 -65 113
-138 154 l-49 27 6 -56z m148 -156 c31 -44 15 -33 -22 15 -19 23 -26 36 -16
28 10 -8 27 -27 38 -43z"/>
<path d="M3597 1006 c-46 -17 -64 -32 -83 -67 -22 -44 -17 -103 16 -175 16
-36 29 -69 29 -72 -4 -23 5 -34 40 -51 40 -21 69 -19 120 8 11 7 21 9 21 7 0
-3 -17 -14 -37 -25 l-38 -20 62 -1 c52 0 66 4 93 26 43 37 60 75 60 136 0 64
-25 110 -76 140 -19 11 -33 23 -30 25 9 9 68 -31 90 -60 17 -24 21 -43 21
-112 0 -46 4 -81 8 -78 20 12 47 98 47 146 0 77 -16 123 -53 151 -60 45 -147
42 -132 -5 6 -18 3 -17 -31 6 -20 14 -43 25 -50 25 -7 0 -18 2 -26 5 -7 2 -30
-2 -51 -9z m136 -98 c34 -17 70 -78 47 -78 -4 0 -10 9 -13 19 -6 25 -64 61
-96 61 -38 0 -81 -47 -81 -87 0 -53 25 -91 68 -102 81 -23 142 -7 162 43 8 18
9 18 9 3 1 -11 -14 -33 -31 -49 -31 -28 -36 -30 -92 -25 -81 7 -117 42 -124
121 -4 48 -2 57 21 80 29 29 90 36 130 14z m21 -70 c9 -12 16 -32 16 -43 0
-27 -27 -65 -47 -65 -12 0 -13 3 -4 14 9 11 5 19 -20 39 -32 24 -32 25 -10 36
18 10 25 8 46 -15 21 -23 25 -24 25 -9 0 28 -30 55 -60 55 -34 0 -54 -22 -48
-55 3 -13 1 -22 -3 -19 -12 7 -11 41 1 65 16 28 84 27 104 -3z"/>
<path d="M3957 843 c-4 -3 -7 -20 -7 -38 0 -82 -107 -197 -194 -210 -93 -14
-225 47 -211 99 4 14 3 17 -3 8 -6 -9 -12 0 -21 30 -22 71 -33 98 -41 98 -12
0 -50 -64 -50 -83 0 -14 -5 -15 -26 -7 -100 39 -226 -30 -285 -155 -29 -61
-37 -91 -20 -80 6 3 47 10 93 16 46 5 103 19 126 31 46 22 102 88 102 120 0
27 16 22 30 -11 20 -49 94 -118 140 -132 36 -11 49 -10 88 4 26 9 48 14 51 12
9 -9 -70 -35 -106 -35 -32 -1 -35 -2 -20 -11 11 -6 35 -8 55 -4 21 3 60 6 89
5 64 -1 106 19 123 59 8 20 27 38 55 51 29 14 47 31 56 52 l13 32 16 -35 c40
-90 78 -115 215 -139 60 -11 110 -18 112 -16 2 2 -7 30 -19 62 -29 76 -96 145
-163 167 -58 20 -131 22 -138 5 -3 -7 -6 2 -6 20 -1 34 -26 92 -40 92 -4 0
-11 -3 -14 -7z m-559 -138 c-20 -7 -60 -29 -90 -47 -76 -49 -87 -54 -53 -24
36 31 142 86 164 85 9 0 -1 -6 -21 -14z m692 -21 c25 -12 59 -35 75 -49 35
-31 23 -26 -47 20 -28 19 -64 37 -79 40 -16 4 -32 11 -35 17 -9 14 29 2 86
-28z"/>
</g>
</svg>
